<?xml version="1.0" encoding="UTF-8"?>
<!DOCTYPE svg PUBLIC "-//W3C//DTD SVG 1.1//EN" "http://www.w3.org/Graphics/SVG/1.1/DTD/svg11.dtd">
<svg version="1.1" xmlns="http://www.w3.org/2000/svg" xmlns:xlink="http://www.w3.org/1999/xlink" x="0" y="0" width="221.61" height="648.22" viewBox="0, 0, 221.61, 648.22">
  <g id="Layer_1">
    <g>
      <path d="M159.66,646.22 L61.95,646.22 C52.37,646.22 44.61,638.46 44.61,628.88 L44.61,430.56 C44.61,420.98 52.37,413.22 61.95,413.22 L159.66,413.22 C169.24,413.22 177,420.98 177,430.56 L177,628.89 C177,638.46 169.24,646.22 159.66,646.22 z" fill="#23FDD8"/>
      <path d="M160.16,646.72 L62.45,646.72 C52.87,646.72 45.11,638.96 45.11,629.38 L45.11,431.06 C45.11,421.48 52.87,413.72 62.45,413.72 L160.16,413.72 C169.74,413.72 177.5,421.48 177.5,431.06 L177.5,629.39 C177.5,638.96 169.74,646.72 160.16,646.72 z" fill-opacity="0" stroke="#2D398F" stroke-width="3.75" stroke-linecap="round" stroke-linejoin="round" stroke-miterlimit="10"/>
      <path d="M140.15,620.07 L81.4,620.07 C74.22,620.07 68.35,614.2 68.35,607.02 L68.35,607.02 C68.35,599.84 74.22,593.97 81.4,593.97 L140.15,593.97 C147.33,593.97 153.2,599.84 153.2,607.02 L153.2,607.02 C153.2,614.2 147.33,620.07 140.15,620.07 z" fill="#FFFFFF"/>
      <path d="M177.12,570.03 L45.76,570.03" fill-opacity="0" stroke="#2D398F" stroke-width="3.75" stroke-linecap="round" stroke-linejoin="round" stroke-miterlimit="10"/>
      <g>
        <path d="M141.51,488.48 L164.92,502.62 C167.89,505.11 168.28,509.58 165.79,512.54 L165.79,512.54 C163.3,515.51 158.83,515.9 155.87,513.41 L137.88,492.82" fill="#FFFFFF"/>
        <g>
          <g>
            <g>
              <path d="M115.46,465.5 L71.77,465.5 C65.51,465.5 60.39,470.62 60.39,476.88 L60.39,505.66 L60.39,519.07 C60.39,525.33 65.51,530.45 71.77,530.45 L115.46,530.45 C121.72,530.45 126.84,525.33 126.84,519.07 L126.84,505.65 L126.84,476.87 C126.84,470.62 121.72,465.5 115.46,465.5 z" fill="#FFFFFF"/>
              <path d="M67.24,519.06 L67.24,505.65 L67.24,476.87 C67.24,470.61 72.36,465.49 78.62,465.49 L71.78,465.49 C65.52,465.49 60.4,470.61 60.4,476.87 L60.4,505.65 L60.4,519.06 C60.4,525.32 65.52,530.44 71.78,530.44 L78.62,530.44 C72.36,530.44 67.24,525.32 67.24,519.06 z" fill="#82F6F9"/>
              <path d="M127.34,506.15 L127.34,519.56 C127.34,525.82 122.22,530.94 115.96,530.94 L72.27,530.94 C66.01,530.94 60.89,525.82 60.89,519.56 L60.89,506.15" fill-opacity="0" stroke="#2D398F" stroke-width="3.75" stroke-linecap="round" stroke-linejoin="round" stroke-miterlimit="10"/>
              <path d="M60.9,506.15 L60.9,477.37 C60.9,471.11 66.02,465.99 72.28,465.99 L115.97,465.99 C122.23,465.99 127.35,471.11 127.35,477.37 L127.35,506.15" fill-opacity="0" stroke="#2D398F" stroke-width="3.75" stroke-linecap="round" stroke-linejoin="round" stroke-miterlimit="10"/>
            </g>
            <g>
              <path d="M117.8,480.99" fill-opacity="0" stroke="#2D398F" stroke-width="3.75" stroke-linecap="round" stroke-linejoin="round" stroke-miterlimit="10"/>
              <path d="M83.26,480.99" fill-opacity="0" stroke="#2D398F" stroke-width="3.75" stroke-linecap="round" stroke-linejoin="round" stroke-miterlimit="10"/>
              <path d="M117.8,491.03" fill-opacity="0" stroke="#2D398F" stroke-width="3.75" stroke-linecap="round" stroke-linejoin="round" stroke-miterlimit="10"/>
              <path d="M83.26,491.03" fill-opacity="0" stroke="#2D398F" stroke-width="3.75" stroke-linecap="round" stroke-linejoin="round" stroke-miterlimit="10"/>
              <path d="M76.4,491.03" fill-opacity="0" stroke="#2D398F" stroke-width="3.75" stroke-linecap="round" stroke-linejoin="round" stroke-miterlimit="10"/>
              <path d="M70.44,480.99" fill-opacity="0" stroke="#2D398F" stroke-width="3.75" stroke-linecap="round" stroke-linejoin="round" stroke-miterlimit="10"/>
              <path d="M117.8,515.95 L70.44,515.95" fill-opacity="0" stroke="#2D398F" stroke-width="3.75" stroke-linecap="round" stroke-linejoin="round" stroke-miterlimit="10"/>
              <path d="M117.8,505.9 L70.44,505.9" fill-opacity="0" stroke="#2D398F" stroke-width="3.75" stroke-linecap="round" stroke-linejoin="round" stroke-miterlimit="10"/>
            </g>
          </g>
          <path d="M106.58,493.32 L82.15,493.32 C77.89,493.32 74.41,489.84 74.41,485.58 L74.41,485.58 C74.41,481.32 77.89,477.84 82.15,477.84 L106.58,477.84 C110.84,477.84 114.32,481.32 114.32,485.58 L114.32,485.58 C114.32,489.84 110.84,493.32 106.58,493.32 z" fill="#FFD600"/>
        </g>
        <path d="M142.57,489.13 L141.5,488.49 L137.86,492.83 L155.86,513.42 C158.83,515.91 163.29,515.52 165.78,512.55 C166.55,511.63 167.04,510.57 167.27,509.47 C162.57,509.17 156.94,506.79 151.9,502.57 C147.06,498.49 143.8,493.58 142.57,489.13 z" fill="#7DF8FB"/>
        <path d="M144.508,476.554 C144.65,488.488 135.091,498.277 123.157,498.419 C111.224,498.561 101.434,489.002 101.292,477.069 C101.15,465.135 110.709,455.346 122.643,455.204 C134.577,455.062 144.366,464.621 144.508,476.554 z" fill="#82F6F9" opacity="0.63"/>
        <path d="M126.583,454.852 C135.392,456.682 141.049,465.306 139.219,474.115 C137.389,482.924 128.765,488.581 119.956,486.751 C111.148,484.921 105.49,476.297 107.32,467.488 C109.15,458.68 117.774,453.022 126.583,454.852 z" fill="#FFFFFF" opacity="0.63"/>
        <path d="M145.008,477.054 C145.15,488.988 135.591,498.777 123.657,498.919 C111.724,499.061 101.934,489.502 101.792,477.569 C101.65,465.635 111.209,455.846 123.143,455.704 C135.077,455.562 144.866,465.121 145.008,477.054 z" fill-opacity="0" stroke="#2D398F" stroke-width="3.75" stroke-linecap="round" stroke-linejoin="round" stroke-miterlimit="10"/>
        <path d="M142.01,488.98 L165.42,503.12 C168.39,505.61 168.78,510.08 166.29,513.04 L166.29,513.04 C163.8,516.01 159.33,516.4 156.37,513.91 L138.38,493.32" fill-opacity="0" stroke="#2D398F" stroke-width="3.75" stroke-linecap="round" stroke-linejoin="round" stroke-miterlimit="10"/>
        <path d="M142.01,488.98 L165.42,503.12" fill-opacity="0" stroke="#2D398F" stroke-width="3.75" stroke-linecap="round" stroke-linejoin="round" stroke-miterlimit="10"/>
        <path d="M82.15,505.4 C82.15,507.537 80.417,509.27 78.28,509.27 C76.143,509.27 74.41,507.537 74.41,505.4 C74.41,503.263 76.143,501.53 78.28,501.53 C80.417,501.53 82.15,503.263 82.15,505.4 z" fill="#2D398F"/>
        <path d="M111.98,515.06 C111.98,517.197 110.247,518.93 108.11,518.93 C105.973,518.93 104.24,517.197 104.24,515.06 C104.24,512.923 105.973,511.19 108.11,511.19 C110.247,511.19 111.98,512.923 111.98,515.06 z" fill="#2D398F"/>
      </g>
    </g>
    <g>
      <path d="M119.45,331.11 L119.45,-6.5" fill-opacity="0" stroke="#2D398F" stroke-width="3.75" stroke-linecap="round" stroke-linejoin="round" stroke-miterlimit="10"/>
      <path d="M103.17,331.11 L103.17,-6.5" fill-opacity="0" stroke="#2D398F" stroke-width="3.75" stroke-linecap="round" stroke-linejoin="round" stroke-miterlimit="10"/>
    </g>
    <g>
      <g>
        <g>
          <path d="M29.63,367.77 L51.51,445.72 L32.77,453.81 L2,381.76 z" fill="#FFFFFF"/>
          <path d="M29.63,367.77 L40.16,405.3 L14.33,410.63 L2,381.76 z" fill="#7DF8FB"/>
          <path d="M31.68,373.79 L52.01,446.22 L33.27,454.31 L2.5,382.26 z" fill-opacity="0" stroke="#2D398F" stroke-width="3.75" stroke-linecap="round" stroke-linejoin="round" stroke-miterlimit="10"/>
          <path d="M115.46,367.47 L9.79,399.84 L2,381.76 L102.15,336.62 z" fill="#FFFFFF"/>
          <path d="M106.51,346.72 L5.92,390.87 L2,381.76 L102.15,336.62 z" fill="#7DF8FB"/>
          <path d="M115.96,367.97 L10.29,400.34 L2.5,382.26 L102.65,337.12 z" fill-opacity="0" stroke="#2D398F" stroke-width="3.75" stroke-linecap="round" stroke-linejoin="round" stroke-miterlimit="10"/>
        </g>
        <g>
          <path d="M191.98,367.77 L170.1,445.72 L188.85,453.81 L219.61,381.76 z" fill="#FFFFFF"/>
          <path d="M191.98,367.77 L181.45,405.3 L207.29,410.63 L219.61,381.76 z" fill="#7DF8FB"/>
          <path d="M190.93,373.79 L170.6,446.22 L189.35,454.31 L220.11,382.26 z" fill-opacity="0" stroke="#2D398F" stroke-width="3.75" stroke-linecap="round" stroke-linejoin="round" stroke-miterlimit="10"/>
          <path d="M106.16,367.47 L211.82,399.84 L219.61,381.76 L119.46,336.62 z" fill="#FFFFFF"/>
          <path d="M115.1,346.72 L215.69,390.87 L219.61,381.76 L119.46,336.62 z" fill="#7DF8FB"/>
          <path d="M106.66,367.97 L212.32,400.34 L220.11,382.26 L119.96,337.12 z" fill-opacity="0" stroke="#2D398F" stroke-width="3.75" stroke-linecap="round" stroke-linejoin="round" stroke-miterlimit="10"/>
        </g>
      </g>
      <path d="M133.34,352.83 C133.34,365.102 123.392,375.05 111.12,375.05 C98.848,375.05 88.9,365.102 88.9,352.83 C88.9,340.558 98.848,330.61 111.12,330.61 C123.392,330.61 133.34,340.558 133.34,352.83 z" fill="#FFFFFF"/>
      <path d="M133.84,353.33 C133.84,365.602 123.892,375.55 111.62,375.55 C99.348,375.55 89.4,365.602 89.4,353.33 C89.4,341.058 99.348,331.11 111.62,331.11 C123.892,331.11 133.84,341.058 133.84,353.33 z" fill-opacity="0" stroke="#2D398F" stroke-width="3.75" stroke-linecap="round" stroke-linejoin="round" stroke-miterlimit="10"/>
      <path d="M120.84,352.83 C120.84,358.198 116.488,362.55 111.12,362.55 C105.752,362.55 101.4,358.198 101.4,352.83 C101.4,347.462 105.752,343.11 111.12,343.11 C116.488,343.11 120.84,347.462 120.84,352.83 z" fill="#7DF8FB"/>
      <path d="M121.34,353.33 C121.34,358.698 116.988,363.05 111.62,363.05 C106.252,363.05 101.9,358.698 101.9,353.33 C101.9,347.962 106.252,343.61 111.62,343.61 C116.988,343.61 121.34,347.962 121.34,353.33 z" fill-opacity="0" stroke="#2D398F" stroke-width="3.75" stroke-linecap="round" stroke-linejoin="round" stroke-miterlimit="10"/>
    </g>
  </g>
</svg>
