<?xml version="1.0" encoding="utf-8"?>
<!-- Generator: Adobe Illustrator 23.0.2, SVG Export Plug-In . SVG Version: 6.00 Build 0)  -->
<svg version="1.1" id="Layer_1" xmlns="http://www.w3.org/2000/svg" xmlns:xlink="http://www.w3.org/1999/xlink" x="0px" y="0px"
	 viewBox="0 0 2404 1254" style="enable-background:new 0 0 2404 1254;" xml:space="preserve">
<style type="text/css">
	.st0{fill:#23FDD8;}
	.st1{fill:none;stroke:#2D398F;stroke-width:3.75;stroke-linecap:round;stroke-linejoin:round;stroke-miterlimit:10;}
	.st2{fill:#FFFFFF;}
	.st3{fill:#82F6F9;}
	.st4{fill:#FFD600;}
	.st5{fill:#7DF8FB;}
	.st6{opacity:0.63;fill:#82F6F9;}
	.st7{opacity:0.63;fill:#FFFFFF;}
	.st8{fill:#2D398F;}
</style>
<g>
	<path class="st0" d="M355.41,619.97H257.7c-9.58,0-17.34-7.76-17.34-17.34V404.31c0-9.58,7.76-17.34,17.34-17.34h97.71
		c9.58,0,17.34,7.76,17.34,17.34v198.33C372.75,612.21,364.99,619.97,355.41,619.97z"/>
	<path class="st1" d="M355.41,619.97H257.7c-9.58,0-17.34-7.76-17.34-17.34V404.31c0-9.58,7.76-17.34,17.34-17.34h97.71
		c9.58,0,17.34,7.76,17.34,17.34v198.33C372.75,612.21,364.99,619.97,355.41,619.97z"/>
	<g>
		<path class="st2" d="M335.9,593.82h-58.75c-7.18,0-13.05-5.87-13.05-13.05l0,0c0-7.18,5.87-13.05,13.05-13.05h58.75
			c7.18,0,13.05,5.87,13.05,13.05l0,0C348.95,587.95,343.08,593.82,335.9,593.82z"/>
	</g>
	<line class="st1" x1="372.37" y1="543.28" x2="241.01" y2="543.28"/>
	<g>
		<path class="st2" d="M337.26,462.23l23.41,14.14c2.97,2.49,3.36,6.96,0.87,9.92l0,0c-2.49,2.97-6.96,3.36-9.92,0.87l-17.99-20.59"
			/>
		<g>
			<g>
				<g>
					<path class="st2" d="M311.21,439.25h-43.69c-6.26,0-11.38,5.12-11.38,11.38v28.78v13.41c0,6.26,5.12,11.38,11.38,11.38h43.69
						c6.26,0,11.38-5.12,11.38-11.38V479.4v-28.78C322.59,444.37,317.47,439.25,311.21,439.25z"/>
					<g>
						<path class="st3" d="M262.99,492.81V479.4l0-28.78c0-6.26,5.12-11.38,11.38-11.38h-6.84c-6.26,0-11.38,5.12-11.38,11.38
							l0,28.78v13.41c0,6.26,5.12,11.38,11.38,11.38h6.84C268.11,504.19,262.99,499.07,262.99,492.81z"/>
					</g>
					<path class="st1" d="M322.59,479.4v13.41c0,6.26-5.12,11.38-11.38,11.38h-43.69c-6.26,0-11.38-5.12-11.38-11.38V479.4"/>
					<path class="st1" d="M256.15,479.4v-28.78c0-6.26,5.12-11.38,11.38-11.38h43.69c6.26,0,11.38,5.12,11.38,11.38v28.78"/>
				</g>
				<g>
					<path class="st1" d="M313.05,454.24"/>
					<path class="st1" d="M278.51,454.24"/>
					<path class="st1" d="M313.05,464.28"/>
					<path class="st1" d="M278.51,464.28"/>
					<path class="st1" d="M271.65,464.28"/>
					<path class="st1" d="M265.69,454.24"/>
					<line class="st1" x1="313.05" y1="489.2" x2="265.69" y2="489.2"/>
					<line class="st1" x1="313.05" y1="479.15" x2="265.69" y2="479.15"/>
				</g>
			</g>
			<path class="st4" d="M302.33,467.07H277.9c-4.26,0-7.74-3.48-7.74-7.74v0c0-4.26,3.48-7.74,7.74-7.74h24.43
				c4.26,0,7.74,3.48,7.74,7.74v0C310.07,463.59,306.59,467.07,302.33,467.07z"/>
		</g>
		<g>
			<path class="st5" d="M338.32,462.88l-1.07-0.64l-3.64,4.34l18,20.59c2.97,2.49,7.43,2.1,9.92-0.87c0.77-0.92,1.26-1.98,1.49-3.08
				c-4.7-0.3-10.33-2.68-15.37-6.9C342.81,472.24,339.55,467.33,338.32,462.88z"/>
		</g>
		
			<ellipse transform="matrix(0.9999 -0.0119 0.0119 0.9999 -5.3596 3.839)" class="st6" cx="318.68" cy="450.56" rx="21.61" ry="21.61"/>
		
			<ellipse transform="matrix(0.2034 -0.9791 0.9791 0.2034 -181.1278 666.4828)" class="st7" cx="319.02" cy="444.55" rx="16.29" ry="16.29"/>
		
			<ellipse transform="matrix(0.9999 -0.0119 0.0119 0.9999 -5.3595 3.839)" class="st1" cx="318.68" cy="450.56" rx="21.61" ry="21.61"/>
		<path class="st1" d="M337.26,462.23l23.41,14.14c2.97,2.49,3.36,6.96,0.87,9.92l0,0c-2.49,2.97-6.96,3.36-9.92,0.87l-17.99-20.59"
			/>
		<line class="st1" x1="337.26" y1="462.23" x2="360.67" y2="476.37"/>
		<circle class="st8" cx="274.03" cy="479.15" r="3.87"/>
		<circle class="st8" cx="303.86" cy="488.81" r="3.87"/>
	</g>
</g>
<g>
	<g>
		<line class="st1" x1="314.7" y1="304.36" x2="314.7" y2="-24.25"/>
	</g>
	<g>
		<line class="st1" x1="298.42" y1="304.36" x2="298.42" y2="-24.25"/>
	</g>
</g>
<g>
	<g>
		<g>
			<polygon class="st2" points="225.38,341.52 247.26,419.47 228.52,427.56 197.75,355.51 			"/>
			<polygon class="st5" points="225.38,341.52 235.91,379.05 210.08,384.38 197.75,355.51 			"/>
			<polygon class="st1" points="226.93,347.04 247.26,419.47 228.52,427.56 197.75,355.51 			"/>
			<polygon class="st2" points="311.21,341.22 205.54,373.59 197.75,355.51 297.9,310.37 			"/>
			<polygon class="st5" points="302.26,320.47 201.67,364.62 197.75,355.51 297.9,310.37 			"/>
			<polygon class="st1" points="311.21,341.22 205.54,373.59 197.75,355.51 297.9,310.37 			"/>
		</g>
		<g>
			<polygon class="st2" points="387.73,341.52 365.85,419.47 384.6,427.56 415.36,355.51 			"/>
			<polygon class="st5" points="387.73,341.52 377.2,379.05 403.04,384.38 415.36,355.51 			"/>
			<polygon class="st1" points="386.18,347.04 365.85,419.47 384.6,427.56 415.36,355.51 			"/>
			<polygon class="st2" points="301.91,341.22 407.57,373.59 415.36,355.51 315.21,310.37 			"/>
			<polygon class="st5" points="310.85,320.47 411.44,364.62 415.36,355.51 315.21,310.37 			"/>
			<polygon class="st1" points="301.91,341.22 407.57,373.59 415.36,355.51 315.21,310.37 			"/>
		</g>
	</g>
	<circle class="st2" cx="306.87" cy="326.58" r="22.22"/>
	<circle class="st1" cx="306.87" cy="326.58" r="22.22"/>
	<circle class="st5" cx="306.87" cy="326.58" r="9.72"/>
	<circle class="st1" cx="306.87" cy="326.58" r="9.72"/>
</g>
</svg>
