<svg xmlns="http://www.w3.org/2000/svg" viewBox="0 0 1114.21 300.73"><defs><style>.cls-1,.cls-2,.cls-3,.cls-4,.cls-6{fill:none;}.cls-1,.cls-2,.cls-3,.cls-4{stroke:#f2f2f2;stroke-miterlimit:10;}.cls-1,.cls-6{stroke-width:2px;}.cls-3{stroke-dasharray:4.02 2.01;}.cls-4{stroke-dasharray:3.98 1.99;}.cls-5{fill:#74da1a;opacity:0.17;}.cls-6{stroke:#74da1a;stroke-linecap:round;stroke-linejoin:round;}.cls-7{font-size:13px;fill:#47608e;font-family:ProximaSoft-Medium, Proxima Soft;font-weight:500;letter-spacing:0.03em;}</style></defs><title>Curve1_Large</title><g id="Layer_2" data-name="Layer 2"><line class="cls-1" x1="20.84" y1="1" x2="1113.74" y2="1"/><line class="cls-2" x1="85.83" y1="0.94" x2="85.83" y2="2.94"/><line class="cls-3" x1="85.83" y1="4.95" x2="85.83" y2="275.07"/><line class="cls-2" x1="85.83" y1="276.08" x2="85.83" y2="278.08"/><line class="cls-2" x1="240.83" y1="0.94" x2="240.83" y2="2.94"/><line class="cls-3" x1="240.83" y1="4.95" x2="240.83" y2="275.07"/><line class="cls-2" x1="240.83" y1="276.08" x2="240.83" y2="278.08"/><line class="cls-2" x1="396.82" y1="0.94" x2="396.82" y2="2.94"/><line class="cls-3" x1="396.82" y1="4.95" x2="396.82" y2="275.07"/><line class="cls-2" x1="396.82" y1="276.08" x2="396.82" y2="278.08"/><line class="cls-2" x1="552.81" y1="3.9" x2="552.81" y2="5.9"/><line class="cls-4" x1="552.81" y1="7.89" x2="552.81" y2="275.72"/><line class="cls-2" x1="552.81" y1="276.71" x2="552.81" y2="278.71"/><line class="cls-2" x1="709.78" y1="3.9" x2="709.78" y2="5.9"/><line class="cls-4" x1="709.78" y1="7.89" x2="709.78" y2="275.72"/><line class="cls-2" x1="709.78" y1="276.71" x2="709.78" y2="278.71"/><line class="cls-2" x1="863.8" y1="3.9" x2="863.8" y2="5.9"/><line class="cls-4" x1="863.8" y1="7.89" x2="863.8" y2="275.72"/><line class="cls-2" x1="863.8" y1="276.71" x2="863.8" y2="278.71"/><line class="cls-2" x1="1020.77" y1="3.9" x2="1020.77" y2="5.9"/><line class="cls-4" x1="1020.77" y1="7.89" x2="1020.77" y2="275.72"/><line class="cls-2" x1="1020.77" y1="276.71" x2="1020.77" y2="278.71"/><line class="cls-1" x1="20.84" y1="70.48" x2="1113.74" y2="70.48"/><line class="cls-1" x1="20.84" y1="140.96" x2="1113.74" y2="140.96"/><line class="cls-1" x1="20.84" y1="210.44" x2="1113.74" y2="210.44"/><path class="cls-5" d="M1151.49,201.17C625.8,468.13,66.89,459.23,66.89,459.23H1152.08Z" transform="translate(-37.87 -181.18)"/><path class="cls-6" d="M64.43,457s542.29,21.46,1086.32-255.84" transform="translate(-37.87 -181.18)"/><text class="cls-7" transform="translate(10.83 155.28) rotate(-90)">Price</text><text class="cls-7" transform="translate(534.15 296.49)">Supply</text></g></svg>