<?xml version="1.0" encoding="utf-8"?>
<!-- Generator: Adobe Illustrator 23.0.3, SVG Export Plug-In . SVG Version: 6.00 Build 0)  -->
<svg version="1.1" id="Layer_1" xmlns="http://www.w3.org/2000/svg" xmlns:xlink="http://www.w3.org/1999/xlink" x="0px" y="0px"
	 viewBox="0 0 1119.3 297.4" style="enable-background:new 0 0 1119.3 297.4;" xml:space="preserve">
<style type="text/css">
	.st0{fill:none;stroke:#F2F2F2;stroke-width:2;stroke-miterlimit:10;}
	.st1{fill:none;stroke:#F2F2F2;stroke-miterlimit:10;}
	.st2{fill:none;stroke:#F2F2F2;stroke-miterlimit:10;stroke-dasharray:3.97,1.99;}
	.st3{fill:none;stroke:#F2F2F2;stroke-miterlimit:10;stroke-dasharray:4.02,2.01;}
	.st4{fill:#47608E;}
	.st5{font-family:'ProximaSoft-Medium';}
	.st6{font-size:13px;}
	.st7{fill:none;stroke:#74DA1A;stroke-width:2;stroke-linecap:round;stroke-linejoin:round;}
	.st8{opacity:0.17;fill:#74DA1A;enable-background:new    ;}
</style>
<title>Curve2_Large</title>
<g>
	<line class="st0" x1="20.8" y1="1" x2="1119.3" y2="1"/>
	<line class="st1" x1="86.2" y1="0.9" x2="86.2" y2="2.9"/>
	<line class="st2" x1="86.2" y1="4.9" x2="86.2" y2="272.1"/>
	<line class="st1" x1="86.2" y1="273.1" x2="86.2" y2="275.1"/>
	<line class="st1" x1="242" y1="0.9" x2="242" y2="2.9"/>
	<line class="st2" x1="242" y1="4.9" x2="242" y2="272.1"/>
	<line class="st1" x1="242" y1="273.1" x2="242" y2="275.1"/>
	<line class="st1" x1="398.8" y1="0.9" x2="398.8" y2="2.9"/>
	<line class="st2" x1="398.8" y1="4.9" x2="398.8" y2="272.1"/>
	<line class="st1" x1="398.8" y1="273.1" x2="398.8" y2="275.1"/>
	<line class="st1" x1="555.5" y1="3.9" x2="555.5" y2="5.9"/>
	<line class="st3" x1="555.5" y1="7.9" x2="555.5" y2="272.4"/>
	<line class="st1" x1="555.5" y1="273.4" x2="555.5" y2="275.4"/>
	<line class="st1" x1="713.3" y1="3.9" x2="713.3" y2="5.9"/>
	<line class="st3" x1="713.3" y1="7.9" x2="713.3" y2="272.4"/>
	<line class="st1" x1="713.3" y1="273.4" x2="713.3" y2="275.4"/>
	<line class="st1" x1="868.1" y1="3.9" x2="868.1" y2="5.9"/>
	<line class="st3" x1="868.1" y1="7.9" x2="868.1" y2="272.4"/>
	<line class="st1" x1="868.1" y1="273.4" x2="868.1" y2="275.4"/>
	<line class="st1" x1="1025.9" y1="3.9" x2="1025.9" y2="5.9"/>
	<line class="st3" x1="1025.9" y1="7.9" x2="1025.9" y2="272.4"/>
	<line class="st1" x1="1025.9" y1="273.4" x2="1025.9" y2="275.4"/>
	<line class="st0" x1="20.8" y1="69.7" x2="1119.3" y2="69.7"/>
	<line class="st0" x1="20.8" y1="139.3" x2="1119.3" y2="139.3"/>
	<line class="st0" x1="20.8" y1="207.9" x2="1119.3" y2="207.9"/>
	<text transform="matrix(6.123234e-17 -1 1 6.123234e-17 10.8301 153.6201)" class="st4 st5 st6">Price</text>
	<text transform="matrix(1 0 0 1 535.14 293.17)" class="st4 st5 st6">Supply</text>
	<line class="st7" x1="750.5" y1="1.1" x2="23.8" y2="274.8"/>
	<polygon class="st8" points="25.4,274.8 752.1,1.1 1119,1 1119.2,275.4 	"/>
</g>
</svg>
