<?xml version="1.0" encoding="utf-8"?>
<!-- Generator: Adobe Illustrator 23.0.3, SVG Export Plug-In . SVG Version: 6.00 Build 0)  -->
<svg version="1.1" id="Layer_1" xmlns="http://www.w3.org/2000/svg" xmlns:xlink="http://www.w3.org/1999/xlink" x="0px" y="0px"
	 viewBox="0 0 307.9 213.5" style="enable-background:new 0 0 307.9 213.5;" xml:space="preserve">
<style type="text/css">
	.st0{fill:#F2F2F2;}
	.st1{fill:#47608E;}
	.st2{fill:#74DA1A;}
	.st3{opacity:0.17;fill:#74DA1A;enable-background:new    ;}
</style>
<title>Curve2</title>
<g id="Layer_3">
	<rect x="17" class="st0" width="290.8" height="2"/>
	<rect x="33.8" y="1" class="st0" width="1" height="2"/>
	<path class="st0" d="M34.8,190.9h-1v-4h1V190.9z M34.8,184.9h-1v-4h1V184.9z M34.8,178.8h-1v-4h1V178.8z M34.8,172.7h-1v-4h1V172.7
		z M34.8,166.7h-1v-4h1V166.7z M34.8,160.6h-1v-4h1V160.6z M34.8,154.5h-1v-4h1V154.5z M34.8,148.5h-1v-4h1V148.5z M34.8,142.4h-1
		v-4h1V142.4z M34.8,136.4h-1v-4h1V136.4z M34.8,130.3h-1v-4h1V130.3z M34.8,124.2h-1v-4h1V124.2z M34.8,118.2h-1v-4h1V118.2z
		 M34.8,112.1h-1v-4h1V112.1z M34.8,106h-1v-4h1V106z M34.8,100h-1v-4h1V100z M34.8,93.9h-1v-4h1V93.9z M34.8,87.8h-1v-4h1V87.8z
		 M34.8,81.8h-1v-4h1V81.8z M34.8,75.7h-1v-4h1V75.7z M34.8,69.7h-1v-4.1h1V69.7z M34.8,63.6h-1v-4h1V63.6z M34.8,57.5h-1v-4h1V57.5
		z M34.8,51.5h-1v-4h1V51.5z M34.8,45.4h-1v-4h1V45.4z M34.8,39.3h-1v-4.1h1V39.3z M34.8,33.3h-1v-4h1V33.3z M34.8,27.2h-1v-4h1
		V27.2z M34.8,21.1h-1v-4.1h1V21.1z M34.8,15.1h-1v-4h1V15.1z M34.8,9h-1V5h1V9z"/>
	<rect x="33.8" y="193" class="st0" width="1" height="2"/>
	<rect x="75.1" y="1" class="st0" width="1" height="2"/>
	<path class="st0" d="M76.1,190.9h-1v-4h1V190.9z M76.1,184.9h-1v-4h1V184.9z M76.1,178.8h-1v-4h1V178.8z M76.1,172.7h-1v-4h1V172.7
		z M76.1,166.7h-1v-4h1V166.7z M76.1,160.6h-1v-4h1V160.6z M76.1,154.5h-1v-4h1V154.5z M76.1,148.5h-1v-4h1V148.5z M76.1,142.4h-1
		v-4h1V142.4z M76.1,136.4h-1v-4h1V136.4z M76.1,130.3h-1v-4h1V130.3z M76.1,124.2h-1v-4h1V124.2z M76.1,118.2h-1v-4h1V118.2z
		 M76.1,112.1h-1v-4h1V112.1z M76.1,106h-1v-4h1V106z M76.1,100h-1v-4h1V100z M76.1,93.9h-1v-4h1V93.9z M76.1,87.8h-1v-4h1V87.8z
		 M76.1,81.8h-1v-4h1V81.8z M76.1,75.7h-1v-4h1V75.7z M76.1,69.7h-1v-4.1h1V69.7z M76.1,63.6h-1v-4h1V63.6z M76.1,57.5h-1v-4h1V57.5
		z M76.1,51.5h-1v-4h1V51.5z M76.1,45.4h-1v-4h1V45.4z M76.1,39.3h-1v-4.1h1V39.3z M76.1,33.3h-1v-4h1V33.3z M76.1,27.2h-1v-4h1
		V27.2z M76.1,21.1h-1v-4.1h1V21.1z M76.1,15.1h-1v-4h1V15.1z M76.1,9h-1V5h1V9z"/>
	<rect x="75.1" y="193" class="st0" width="1" height="2"/>
	<rect x="116.6" y="1" class="st0" width="1" height="2"/>
	<path class="st0" d="M117.6,190.9h-1v-4h1V190.9z M117.6,184.9h-1v-4h1V184.9z M117.6,178.8h-1v-4h1V178.8z M117.6,172.7h-1v-4h1
		V172.7z M117.6,166.7h-1v-4h1V166.7z M117.6,160.6h-1v-4h1V160.6z M117.6,154.5h-1v-4h1V154.5z M117.6,148.5h-1v-4h1V148.5z
		 M117.6,142.4h-1v-4h1V142.4z M117.6,136.4h-1v-4h1V136.4z M117.6,130.3h-1v-4h1V130.3z M117.6,124.2h-1v-4h1V124.2z M117.6,118.2
		h-1v-4h1V118.2z M117.6,112.1h-1v-4h1V112.1z M117.6,106h-1v-4h1V106z M117.6,100h-1v-4h1V100z M117.6,93.9h-1v-4h1V93.9z
		 M117.6,87.8h-1v-4h1V87.8z M117.6,81.8h-1v-4h1V81.8z M117.6,75.7h-1v-4h1V75.7z M117.6,69.7h-1v-4.1h1V69.7z M117.6,63.6h-1v-4h1
		V63.6z M117.6,57.5h-1v-4h1V57.5z M117.6,51.5h-1v-4h1V51.5z M117.6,45.4h-1v-4h1V45.4z M117.6,39.3h-1v-4.1h1V39.3z M117.6,33.3
		h-1v-4h1V33.3z M117.6,27.2h-1v-4h1V27.2z M117.6,21.1h-1v-4.1h1V21.1z M117.6,15.1h-1v-4h1V15.1z M117.6,9h-1V5h1V9z"/>
	<rect x="116.6" y="193" class="st0" width="1" height="2"/>
	<rect x="158.1" y="3" class="st0" width="1" height="2"/>
	<path class="st0" d="M159.1,191.2h-1v-4h1V191.2z M159.1,185.2h-1v-4h1V185.2z M159.1,179.2h-1v-4h1V179.2z M159.1,173.2h-1v-4h1
		V173.2z M159.1,167.2h-1v-4h1V167.2z M159.1,161.2h-1v-4h1V161.2z M159.1,155.2h-1v-4h1V155.2z M159.1,149.2h-1v-4h1V149.2z
		 M159.1,143.2h-1v-4h1V143.2z M159.1,137.2h-1v-4h1V137.2z M159.1,131.2h-1v-4h1V131.2z M159.1,125.2h-1v-4h1V125.2z M159.1,119.2
		h-1v-4h1V119.2z M159.1,113.2h-1v-4h1V113.2z M159.1,107.2h-1v-4h1V107.2z M159.1,101.2h-1v-4h1V101.2z M159.1,95.2h-1v-4h1V95.2z
		 M159.1,89.2h-1v-4h1V89.2z M159.1,83.2h-1v-4h1V83.2z M159.1,77.2h-1v-4h1V77.2z M159.1,71.2h-1v-4h1V71.2z M159.1,65.2h-1v-4h1
		V65.2z M159.1,59.2h-1v-4h1V59.2z M159.1,53.2h-1v-4h1V53.2z M159.1,47.2h-1v-4h1V47.2z M159.1,41.2h-1v-4h1V41.2z M159.1,35.2h-1
		v-4h1V35.2z M159.1,29.2h-1v-4h1V29.2z M159.1,23.2h-1v-4h1V23.2z M159.1,17.2h-1v-4h1V17.2z M159.1,11.2h-1v-4h1V11.2z"/>
	<rect x="158.1" y="193.2" class="st0" width="1" height="2"/>
	<rect x="199.9" y="3" class="st0" width="1" height="2"/>
	<path class="st0" d="M200.9,191.2h-1v-4h1V191.2z M200.9,185.2h-1v-4h1V185.2z M200.9,179.2h-1v-4h1V179.2z M200.9,173.2h-1v-4h1
		V173.2z M200.9,167.2h-1v-4h1V167.2z M200.9,161.2h-1v-4h1V161.2z M200.9,155.2h-1v-4h1V155.2z M200.9,149.2h-1v-4h1V149.2z
		 M200.9,143.2h-1v-4h1V143.2z M200.9,137.2h-1v-4h1V137.2z M200.9,131.2h-1v-4h1V131.2z M200.9,125.2h-1v-4h1V125.2z M200.9,119.2
		h-1v-4h1V119.2z M200.9,113.2h-1v-4h1V113.2z M200.9,107.2h-1v-4h1V107.2z M200.9,101.2h-1v-4h1V101.2z M200.9,95.2h-1v-4h1V95.2z
		 M200.9,89.2h-1v-4h1V89.2z M200.9,83.2h-1v-4h1V83.2z M200.9,77.2h-1v-4h1V77.2z M200.9,71.2h-1v-4h1V71.2z M200.9,65.2h-1v-4h1
		V65.2z M200.9,59.2h-1v-4h1V59.2z M200.9,53.2h-1v-4h1V53.2z M200.9,47.2h-1v-4h1V47.2z M200.9,41.2h-1v-4h1V41.2z M200.9,35.2h-1
		v-4h1V35.2z M200.9,29.2h-1v-4h1V29.2z M200.9,23.2h-1v-4h1V23.2z M200.9,17.2h-1v-4h1V17.2z M200.9,11.2h-1v-4h1V11.2z"/>
	<rect x="199.9" y="193.2" class="st0" width="1" height="2"/>
	<rect x="240.9" y="3" class="st0" width="1" height="2"/>
	<path class="st0" d="M241.9,191.2h-1v-4h1V191.2z M241.9,185.2h-1v-4h1V185.2z M241.9,179.2h-1v-4h1V179.2z M241.9,173.2h-1v-4h1
		V173.2z M241.9,167.2h-1v-4h1V167.2z M241.9,161.2h-1v-4h1V161.2z M241.9,155.2h-1v-4h1V155.2z M241.9,149.2h-1v-4h1V149.2z
		 M241.9,143.2h-1v-4h1V143.2z M241.9,137.2h-1v-4h1V137.2z M241.9,131.2h-1v-4h1V131.2z M241.9,125.2h-1v-4h1V125.2z M241.9,119.2
		h-1v-4h1V119.2z M241.9,113.2h-1v-4h1V113.2z M241.9,107.2h-1v-4h1V107.2z M241.9,101.2h-1v-4h1V101.2z M241.9,95.2h-1v-4h1V95.2z
		 M241.9,89.2h-1v-4h1V89.2z M241.9,83.2h-1v-4h1V83.2z M241.9,77.2h-1v-4h1V77.2z M241.9,71.2h-1v-4h1V71.2z M241.9,65.2h-1v-4h1
		V65.2z M241.9,59.2h-1v-4h1V59.2z M241.9,53.2h-1v-4h1V53.2z M241.9,47.2h-1v-4h1V47.2z M241.9,41.2h-1v-4h1V41.2z M241.9,35.2h-1
		v-4h1V35.2z M241.9,29.2h-1v-4h1V29.2z M241.9,23.2h-1v-4h1V23.2z M241.9,17.2h-1v-4h1V17.2z M241.9,11.2h-1v-4h1V11.2z"/>
	<rect x="240.9" y="193.2" class="st0" width="1" height="2"/>
	<rect x="282.6" y="3" class="st0" width="1" height="2"/>
	<path class="st0" d="M283.6,191.2h-1v-4h1V191.2z M283.6,185.2h-1v-4h1V185.2z M283.6,179.2h-1v-4h1V179.2z M283.6,173.2h-1v-4h1
		V173.2z M283.6,167.2h-1v-4h1V167.2z M283.6,161.2h-1v-4h1V161.2z M283.6,155.2h-1v-4h1V155.2z M283.6,149.2h-1v-4h1V149.2z
		 M283.6,143.2h-1v-4h1V143.2z M283.6,137.2h-1v-4h1V137.2z M283.6,131.2h-1v-4h1V131.2z M283.6,125.2h-1v-4h1V125.2z M283.6,119.2
		h-1v-4h1V119.2z M283.6,113.2h-1v-4h1V113.2z M283.6,107.2h-1v-4h1V107.2z M283.6,101.2h-1v-4h1V101.2z M283.6,95.2h-1v-4h1V95.2z
		 M283.6,89.2h-1v-4h1V89.2z M283.6,83.2h-1v-4h1V83.2z M283.6,77.2h-1v-4h1V77.2z M283.6,71.2h-1v-4h1V71.2z M283.6,65.2h-1v-4h1
		V65.2z M283.6,59.2h-1v-4h1V59.2z M283.6,53.2h-1v-4h1V53.2z M283.6,47.2h-1v-4h1V47.2z M283.6,41.2h-1v-4h1V41.2z M283.6,35.2h-1
		v-4h1V35.2z M283.6,29.2h-1v-4h1V29.2z M283.6,23.2h-1v-4h1V23.2z M283.6,17.2h-1v-4h1V17.2z M283.6,11.2h-1v-4h1V11.2z"/>
	<rect x="282.6" y="193.2" class="st0" width="1" height="2"/>
	<rect x="17" y="48.6" class="st0" width="290.8" height="2"/>
	<rect x="17" y="97.9" class="st0" width="290.8" height="2"/>
	<rect x="17" y="146.4" class="st0" width="290.8" height="2"/>
</g>
<g>
	<path class="st1" d="M8.4,30.5H1c-0.3,0-0.7-0.2-0.7-0.6c0,0,0-0.1,0-0.1v-3c-0.1-1.5,1-2.7,2.5-2.8c1.5-0.1,2.7,1,2.8,2.5
		c0,0.1,0,0.2,0,0.3v2.4h2.8c0.4,0,0.6,0.3,0.6,0.6C9.1,30.2,8.8,30.5,8.4,30.5C8.4,30.5,8.4,30.5,8.4,30.5z M1.5,27.1v2.2h3v-2.2
		c0.1-0.8-0.4-1.6-1.3-1.7c-0.8-0.1-1.6,0.4-1.7,1.3C1.5,26.7,1.5,26.9,1.5,27.1z"/>
	<path class="st1" d="M3.2,19.2c0.3,0,0.5,0.2,0.6,0.6c0.1,0.6,0.4,1.2,0.9,1.5h3.8c0.3,0,0.6,0.3,0.6,0.6c0,0.3-0.3,0.6-0.6,0.6
		c0,0,0,0,0,0H3.3c-0.3,0-0.6-0.3-0.6-0.6c0-0.3,0.3-0.6,0.6-0.6h0.5c-0.5-0.3-0.8-0.8-1-1.3c0-0.1-0.1-0.2-0.1-0.3
		C2.6,19.4,2.9,19.2,3.2,19.2C3.2,19.2,3.2,19.2,3.2,19.2z"/>
	<path class="st1" d="M0.7,17.9c-0.4,0-0.7-0.3-0.7-0.8c0-0.4,0.3-0.7,0.7-0.8c0.4,0,0.8,0.3,0.8,0.8C1.5,17.6,1.2,17.9,0.7,17.9z
		 M8.5,17.8H3.3c-0.3,0-0.6-0.3-0.6-0.6c0-0.3,0.3-0.6,0.6-0.6h5.2c0.3,0,0.6,0.3,0.6,0.6C9.1,17.5,8.8,17.8,8.5,17.8
		C8.5,17.8,8.5,17.8,8.5,17.8z"/>
	<path class="st1" d="M2.6,11.6c0-0.7,0.2-1.5,0.7-2c0.1-0.1,0.2-0.2,0.4-0.2c0.3,0,0.5,0.2,0.5,0.5c0,0.1,0,0.3-0.1,0.4
		c-0.3,0.3-0.5,0.8-0.5,1.3c0.1,1.2,1.3,2.1,2.5,2c1-0.1,1.9-0.9,2-2c0-0.5-0.2-0.9-0.5-1.3c-0.1-0.1-0.1-0.2-0.1-0.3
		c0-0.3,0.2-0.5,0.5-0.5c0,0,0,0,0,0c0.2,0,0.3,0.1,0.4,0.2c0.5,0.5,0.8,1.3,0.7,2c-0.1,1.8-1.7,3.2-3.5,3.1
		C4,14.6,2.7,13.3,2.6,11.6z"/>
	<path class="st1" d="M2.6,4.9c0-1.7,1.3-3,3-3c0,0,0.1,0,0.1,0c0.4,0,0.6,0.2,0.6,0.7v4.3c1.1,0,2-1,2-2.1c0,0,0,0,0,0
		c0-0.6-0.2-1.1-0.5-1.6c0-0.1-0.1-0.2-0.1-0.3c0-0.3,0.2-0.5,0.4-0.5c0.2,0,0.3,0.1,0.4,0.2C9,3.3,9.2,4,9.2,4.8
		C9.2,6.6,7.6,8.1,5.8,8C4.1,7.9,2.8,6.6,2.6,4.9L2.6,4.9z M5.4,6.8V3c-1,0-1.9,0.8-1.9,1.8c0,0,0,0,0,0.1C3.5,5.9,4.4,6.8,5.4,6.8
		L5.4,6.8z"/>
	<path class="st1" d="M267.5,209.6c0-0.3,0.3-0.6,0.6-0.6c0.1,0,0.3,0,0.4,0.1c0.6,0.5,1.5,0.8,2.3,0.8c1.4,0,1.9-0.7,1.9-1.3
		c0-0.9-1-1.2-2.1-1.5c-1.4-0.4-3-0.8-3-2.5c0-1.4,1.3-2.5,3.2-2.5c1,0,1.9,0.3,2.7,0.8c0.2,0.1,0.3,0.3,0.3,0.5
		c0,0.3-0.3,0.6-0.6,0.6c0,0,0,0,0,0c-0.1,0-0.3,0-0.4-0.1c-0.6-0.5-1.3-0.7-2.1-0.7c-1.1,0-1.7,0.5-1.7,1.2s0.9,1,2,1.3
		c1.4,0.4,3.1,0.8,3.1,2.7c0,1.4-0.9,2.6-3.3,2.6c-1.1,0-2.1-0.3-3-1C267.7,210,267.6,209.8,267.5,209.6z"/>
	<path class="st1" d="M281.3,205.2v5.2c0,0.3-0.3,0.6-0.6,0.6c-0.3,0-0.6-0.3-0.6-0.6c0,0,0,0,0,0v-0.3c-0.6,0.6-1.4,1-2.2,1
		c-1,0.1-1.9-0.5-2-1.5c0-0.2,0-0.3,0-0.5v-3.9c0-0.3,0.3-0.6,0.6-0.6l0,0c0.3,0,0.6,0.3,0.6,0.6v3.5c0,1,0.5,1.4,1.3,1.4
		c0.7,0,1.3-0.3,1.8-0.9v-4c0-0.3,0.3-0.6,0.6-0.6C281,204.6,281.3,204.9,281.3,205.2L281.3,205.2z"/>
	<path class="st1" d="M289.5,207.8c0,2.1-1.2,3.3-2.8,3.3c-0.8,0-1.6-0.4-2-1.1v2.8c0,0.3-0.3,0.6-0.6,0.6l0,0
		c-0.3,0-0.6-0.3-0.6-0.6c0,0,0,0,0,0v-7.6c0-0.3,0.3-0.6,0.6-0.6l0,0c0.3,0,0.6,0.3,0.6,0.6v0.4c0.5-0.6,1.2-1,2-1
		C288.3,204.5,289.5,205.8,289.5,207.8z M288.3,207.8c0-1.3-0.7-2.2-1.9-2.2c-0.7,0-1.3,0.3-1.7,0.9v2.7c0.4,0.6,1,0.9,1.7,0.9
		C287.6,210.1,288.3,209.1,288.3,207.8L288.3,207.8z"/>
	<path class="st1" d="M297.3,207.8c0,2.1-1.2,3.3-2.8,3.3c-0.8,0-1.5-0.4-2-1.1v2.8c0,0.3-0.3,0.6-0.6,0.6c-0.3,0-0.6-0.3-0.6-0.6
		c0,0,0,0,0,0v-7.6c0-0.3,0.3-0.6,0.6-0.6l0,0c0.3,0,0.6,0.3,0.6,0.6v0.4c0.5-0.6,1.2-1,2-1C296.2,204.5,297.3,205.8,297.3,207.8z
		 M296.1,207.8c0-1.3-0.7-2.2-1.9-2.2c-0.7,0-1.3,0.3-1.7,0.9v2.7c0.4,0.6,1,0.9,1.7,0.9C295.4,210.1,296.1,209.1,296.1,207.8
		L296.1,207.8z"/>
	<path class="st1" d="M299.1,210.4v-7.6c0-0.3,0.2-0.6,0.5-0.7c0.3,0,0.6,0.2,0.7,0.5c0,0.1,0,0.1,0,0.2v7.6c0,0.3-0.2,0.6-0.5,0.7
		c-0.3,0-0.6-0.2-0.7-0.5C299.1,210.5,299.1,210.5,299.1,210.4z"/>
	<path class="st1" d="M302.7,212.4h0.2c0.4,0,0.8-0.2,0.9-0.6l0.4-0.8l-2.3-5.6c0-0.1,0-0.1,0-0.2c0-0.3,0.2-0.6,0.6-0.6
		c0,0,0,0,0,0c0.2,0,0.4,0.1,0.5,0.4l1.8,4.6l1.8-4.6c0.1-0.3,0.5-0.4,0.8-0.3c0.2,0.1,0.3,0.3,0.4,0.5c0,0.1,0,0.2,0,0.2l-2.8,6.7
		c-0.3,0.8-1.1,1.4-2,1.4h-0.2c-0.3-0.1-0.4-0.4-0.3-0.7C302.5,212.7,302.6,212.5,302.7,212.4L302.7,212.4z"/>
	<path class="st2" d="M17.8,195.8c-0.3,0-0.5-0.1-0.7-0.3c-0.4-0.4-0.4-1,0-1.4c0,0,0,0,0,0L209.5,0.4c0.4-0.4,1-0.4,1.4,0
		c0.4,0.4,0.4,1,0,1.4L18.5,195.5C18.3,195.7,18.1,195.8,17.8,195.8z"/>
	<polygon class="st3" points="18.2,194.8 210.6,1.1 307.6,1.1 307.2,195.2 	"/>
</g>
</svg>
