<svg xmlns="http://www.w3.org/2000/svg" viewBox="0 0 1114.26 303.05"><defs><style>.cls-1,.cls-2,.cls-3,.cls-4,.cls-6{fill:none;}.cls-1,.cls-2,.cls-3,.cls-4{stroke:#f2f2f2;stroke-miterlimit:10;}.cls-1,.cls-6{stroke-width:2px;}.cls-3{stroke-dasharray:3.97 1.98;}.cls-4{stroke-dasharray:4.01 2.01;}.cls-5{font-size:13px;fill:#47608e;font-family:ProximaSoft-Medium, Proxima Soft;font-weight:500;letter-spacing:0.03em;}.cls-6{stroke:#74da1a;stroke-linecap:round;stroke-linejoin:round;}.cls-7{fill:#74da1a;opacity:0.17;}</style></defs><title>Curve3_Large</title><g id="Layer_2" data-name="Layer 2"><line class="cls-1" x1="20.84" y1="1" x2="1113.9" y2="1"/><line class="cls-2" x1="85.84" y1="0.94" x2="85.84" y2="2.94"/><line class="cls-3" x1="85.84" y1="4.92" x2="85.84" y2="277.62"/><line class="cls-2" x1="85.84" y1="278.61" x2="85.84" y2="280.61"/><line class="cls-2" x1="240.87" y1="0.94" x2="240.87" y2="2.94"/><line class="cls-3" x1="240.87" y1="4.92" x2="240.87" y2="277.62"/><line class="cls-2" x1="240.87" y1="278.61" x2="240.87" y2="280.61"/><line class="cls-2" x1="396.88" y1="0.94" x2="396.88" y2="2.94"/><line class="cls-3" x1="396.88" y1="4.92" x2="396.88" y2="277.62"/><line class="cls-2" x1="396.88" y1="278.61" x2="396.88" y2="280.61"/><line class="cls-2" x1="552.89" y1="3.95" x2="552.89" y2="5.95"/><line class="cls-4" x1="552.89" y1="7.96" x2="552.89" y2="277.67"/><line class="cls-2" x1="552.89" y1="278.67" x2="552.89" y2="280.67"/><line class="cls-2" x1="709.88" y1="3.95" x2="709.88" y2="5.95"/><line class="cls-4" x1="709.88" y1="7.96" x2="709.88" y2="277.67"/><line class="cls-2" x1="709.88" y1="278.67" x2="709.88" y2="280.67"/><line class="cls-2" x1="863.93" y1="3.95" x2="863.93" y2="5.95"/><line class="cls-4" x1="863.93" y1="7.96" x2="863.93" y2="277.67"/><line class="cls-2" x1="863.93" y1="278.67" x2="863.93" y2="280.67"/><line class="cls-2" x1="1020.92" y1="3.95" x2="1020.92" y2="5.95"/><line class="cls-4" x1="1020.92" y1="7.96" x2="1020.92" y2="277.67"/><line class="cls-2" x1="1020.92" y1="278.67" x2="1020.92" y2="280.67"/><line class="cls-1" x1="20.84" y1="71.08" x2="1113.9" y2="71.08"/><line class="cls-1" x1="20.84" y1="142.17" x2="1113.9" y2="142.17"/><line class="cls-1" x1="20.84" y1="212.24" x2="1113.9" y2="212.24"/><text class="cls-5" transform="translate(10.83 155.94) rotate(-90)">Price</text><text class="cls-5" transform="translate(532.14 298.82)">Supply</text><path class="cls-6" d="M785.21,932.49" transform="translate(-38.28 -931.39)"/><line class="cls-6" x1="1113.26" y1="245.77" x2="21.85" y2="245.77"/><rect class="cls-7" x="21.65" y="247.49" width="1091.88" height="33.42"/></g></svg>