<svg xmlns="http://www.w3.org/2000/svg" viewBox="0 0 584.42801 852.75045"><title>loader-bg</title><rect x="265.00176" y="535.82948" width="220.64361" height="10.16242" transform="translate(750.64712 1081.82139) rotate(-180)" style="fill:#82f6f9"/><rect x="423.27173" y="411.91933" width="65.9039" height="72.9158" rx="7.2" transform="translate(912.44737 896.75446) rotate(-180)" style="fill:#fff"/><rect x="261.74949" y="326.41613" width="131.8649" height="209.41336" style="fill:#fff"/><rect x="262.4157" y="314.91497" width="120.87461" height="16.54279" style="fill:#82f6f9"/><rect x="261.74949" y="479.98978" width="15.28323" height="55.8397" transform="translate(538.78221 1015.81927) rotate(-180)" style="fill:#82f6f9"/><line x1="456.22368" y1="484.83513" x2="456.22368" y2="532.04469" style="fill:none;stroke:#82f6f9;stroke-linecap:round;stroke-linejoin:round;stroke-width:12.8592967987061px"/><line x1="456.27328" y1="484.83514" x2="456.27328" y2="533.99966" style="fill:none;stroke:#2d398f;stroke-linecap:round;stroke-linejoin:round;stroke-width:3.75px"/><path d="M467.43326,444.51587c0-13.13046-5.12519-24.85785-13.16-32.59653h19.4713a15.47645,15.47645,0,0,1,15.43105,15.43105V469.404a15.47648,15.47648,0,0,1-15.43105,15.43118H442.03346C456.74348,479.51869,467.43326,463.48028,467.43326,444.51587Z" style="fill:#82f6f9"/><line x1="435.9648" y1="440.60202" x2="449.69375" y2="440.60202" style="fill:none;stroke:#2d398f;stroke-linecap:round;stroke-linejoin:round;stroke-width:3.75px"/><line x1="449.69375" y1="467.98027" x2="456.34167" y2="467.98027" style="fill:none;stroke:#2d398f;stroke-linecap:round;stroke-linejoin:round;stroke-width:3.75px"/><line x1="471.67286" y1="429.04396" x2="478.32078" y2="429.04396" style="fill:none;stroke:#2d398f;stroke-linecap:round;stroke-linejoin:round;stroke-width:3.75px"/><line x1="485.32607" y1="458.40213" x2="471.3155" y2="458.40213" style="fill:none;stroke:#2d398f;stroke-linecap:round;stroke-linejoin:round;stroke-width:3.75px"/><rect x="423.27173" y="411.91933" width="65.9039" height="72.9158" rx="7.2" transform="translate(912.44737 896.75446) rotate(-180)" style="fill:none;stroke:#2d398f;stroke-linecap:round;stroke-linejoin:round;stroke-width:3.75px"/><polygon points="263.564 479.99 263.564 466.857 296.878 466.857 277.033 479.99 263.564 479.99" style="fill:#82f6f9"/><rect x="261.74949" y="367.9815" width="23.61759" height="12.79995" transform="translate(547.11657 748.76295) rotate(-180)" style="fill:#82f6f9"/><rect x="261.74949" y="388.9" width="23.61759" height="12.79995" transform="translate(547.11657 790.59996) rotate(-180)" style="fill:#82f6f9"/><rect x="294.71571" y="501.50966" width="23.61759" height="12.79995" transform="translate(613.04902 1015.81927) rotate(-180)" style="fill:#82f6f9"/><rect x="363.28513" y="479.09607" width="17.7132" height="12.79995" transform="translate(744.28345 970.99209) rotate(-180)" style="fill:#82f6f9"/><rect x="380.14578" y="315.96804" width="13.46861" height="219.86144" transform="translate(773.76017 851.79753) rotate(-180)" style="fill:#82f6f9"/><rect x="322.18798" y="351.03447" width="13.81498" height="7.48726" transform="translate(658.19093 709.55621) rotate(-180)" style="fill:#82f6f9"/><path d="M34.42692,274.81742c0,4.62122-4.61974,8.36746-10.31848,8.36746S13.79,279.43864,13.79,274.81742" style="fill:none;stroke:#fff;stroke-linecap:round;stroke-linejoin:round;stroke-width:3.75px"/><path d="M55.02855,275.0388c0,4.62122-4.61974,8.36747-10.31848,8.36747S34.39158,279.66,34.39158,275.0388" style="fill:none;stroke:#fff;stroke-linecap:round;stroke-linejoin:round;stroke-width:3.75px"/><path d="M75.71854,274.81742c0,4.62122-4.61975,8.36746-10.31849,8.36746s-10.31848-3.74624-10.31848-8.36746" style="fill:none;stroke:#fff;stroke-linecap:round;stroke-linejoin:round;stroke-width:3.75px"/><path d="M96.32017,275.0388c0,4.62122-4.61974,8.36747-10.31849,8.36747S75.6832,279.66,75.6832,275.0388" style="fill:none;stroke:#fff;stroke-linecap:round;stroke-linejoin:round;stroke-width:3.75px"/><path d="M116.97481,275.0388c0,4.62122-4.61974,8.36747-10.31848,8.36747S96.33784,279.66,96.33784,275.0388" style="fill:none;stroke:#fff;stroke-linecap:round;stroke-linejoin:round;stroke-width:3.75px"/><path d="M137.61179,275.0388c0,4.62122-4.61975,8.36747-10.31849,8.36747s-10.31849-3.74625-10.31849-8.36747" style="fill:none;stroke:#fff;stroke-linecap:round;stroke-linejoin:round;stroke-width:3.75px"/><polygon points="16.742 291.631 10.838 291.631 10.838 269.202 13.79 266.126 16.742 269.202 16.742 291.631" style="fill:#2d398f"/><polygon points="37.379 291.631 31.475 291.631 31.475 269.202 34.427 266.126 37.379 269.202 37.379 291.631" style="fill:#2d398f"/><polygon points="58.016 291.631 52.112 291.631 52.112 269.202 55.064 266.126 58.016 269.202 58.016 291.631" style="fill:#2d398f"/><polygon points="78.653 291.631 72.749 291.631 72.749 269.202 75.701 266.126 78.653 269.202 78.653 291.631" style="fill:#2d398f"/><polygon points="99.29 291.631 93.386 291.631 93.386 269.202 96.338 266.126 99.29 269.202 99.29 291.631" style="fill:#2d398f"/><polygon points="119.927 291.631 114.023 291.631 114.023 269.202 116.975 266.126 119.927 269.202 119.927 291.631" style="fill:#2d398f"/><polygon points="140.564 291.631 134.66 291.631 134.66 269.202 137.612 266.126 140.564 269.202 140.564 291.631" style="fill:#2d398f"/><path d="M34.42692,271.41069c0,4.62123-4.61974,8.36747-10.31848,8.36747S13.79,276.03192,13.79,271.41069" style="fill:none;stroke:#2d398f;stroke-linecap:round;stroke-linejoin:round;stroke-width:3.75px"/><path d="M55.02855,271.63208c0,4.62122-4.61974,8.36746-10.31848,8.36746s-10.31849-3.74624-10.31849-8.36746" style="fill:none;stroke:#2d398f;stroke-linecap:round;stroke-linejoin:round;stroke-width:3.75px"/><path d="M75.71854,271.41069c0,4.62123-4.61975,8.36747-10.31849,8.36747s-10.31848-3.74624-10.31848-8.36747" style="fill:none;stroke:#2d398f;stroke-linecap:round;stroke-linejoin:round;stroke-width:3.75px"/><path d="M96.32017,271.63208c0,4.62122-4.61974,8.36746-10.31849,8.36746S75.6832,276.2533,75.6832,271.63208" style="fill:none;stroke:#2d398f;stroke-linecap:round;stroke-linejoin:round;stroke-width:3.75px"/><path d="M116.97481,271.63208c0,4.62122-4.61974,8.36746-10.31848,8.36746s-10.31849-3.74624-10.31849-8.36746" style="fill:none;stroke:#2d398f;stroke-linecap:round;stroke-linejoin:round;stroke-width:3.75px"/><path d="M137.61179,271.63208c0,4.62122-4.61975,8.36746-10.31849,8.36746s-10.31849-3.74624-10.31849-8.36746" style="fill:none;stroke:#2d398f;stroke-linecap:round;stroke-linejoin:round;stroke-width:3.75px"/><rect x="333.38533" y="393.8925" width="19.92262" height="32.4742" style="fill:#82f6f9"/><line x1="333.38533" y1="426.3667" x2="353.30795" y2="426.3667" style="fill:none;stroke:#2d398f;stroke-linecap:round;stroke-linejoin:round;stroke-width:3.75px"/><path d="M353.30468,393.89462a9.95968,9.95968,0,1,0-19.91935,0Z" style="fill:#82f6f9"/><line x1="333.38533" y1="394.88956" x2="353.30795" y2="394.88956" style="fill:none;stroke:#2d398f;stroke-linecap:round;stroke-linejoin:round;stroke-width:3.75px"/><rect x="299.34978" y="393.8925" width="19.92262" height="32.4742" style="fill:#82f6f9"/><line x1="299.34978" y1="426.3667" x2="319.2724" y2="426.3667" style="fill:none;stroke:#2d398f;stroke-linecap:round;stroke-linejoin:round;stroke-width:3.75px"/><path d="M319.26913,393.89462a9.95968,9.95968,0,1,0-19.91935,0Z" style="fill:#82f6f9"/><line x1="299.34978" y1="394.88956" x2="319.2724" y2="394.88956" style="fill:none;stroke:#2d398f;stroke-linecap:round;stroke-linejoin:round;stroke-width:3.75px"/><path d="M158.30248,439.37035c0,4.62122-4.61975,8.36747-10.31849,8.36747s-10.31849-3.74625-10.31849-8.36747" style="fill:none;stroke:#82f6f9;stroke-linecap:round;stroke-linejoin:round;stroke-width:3.75px"/><path d="M178.90411,439.59173c0,4.62123-4.61975,8.36747-10.31849,8.36747s-10.31849-3.74624-10.31849-8.36747" style="fill:none;stroke:#82f6f9;stroke-linecap:round;stroke-linejoin:round;stroke-width:3.75px"/><path d="M199.59409,439.37035c0,4.62122-4.61974,8.36747-10.31848,8.36747s-10.31849-3.74625-10.31849-8.36747" style="fill:none;stroke:#82f6f9;stroke-linecap:round;stroke-linejoin:round;stroke-width:3.75px"/><path d="M220.19572,439.59173c0,4.62123-4.61974,8.36747-10.31848,8.36747s-10.31849-3.74624-10.31849-8.36747" style="fill:none;stroke:#82f6f9;stroke-linecap:round;stroke-linejoin:round;stroke-width:3.75px"/><path d="M240.85037,439.59173c0,4.62123-4.61975,8.36747-10.31849,8.36747s-10.31849-3.74624-10.31849-8.36747" style="fill:none;stroke:#82f6f9;stroke-linecap:round;stroke-linejoin:round;stroke-width:3.75px"/><path d="M261.48734,439.59173c0,4.62123-4.61974,8.36747-10.31849,8.36747s-10.31848-3.74624-10.31848-8.36747" style="fill:none;stroke:#82f6f9;stroke-linecap:round;stroke-linejoin:round;stroke-width:3.75px"/><polygon points="140.618 456.184 134.713 456.184 134.713 433.754 137.666 430.679 140.618 433.754 140.618 456.184" style="fill:#2d398f"/><polygon points="161.255 456.184 155.35 456.184 155.35 433.754 158.302 430.679 161.255 433.754 161.255 456.184" style="fill:#2d398f"/><polygon points="181.892 456.184 175.987 456.184 175.987 433.754 178.939 430.679 181.892 433.754 181.892 456.184" style="fill:#2d398f"/><polygon points="202.529 456.184 196.624 456.184 196.624 433.754 199.576 430.679 202.529 433.754 202.529 456.184" style="fill:#2d398f"/><polygon points="223.166 456.184 217.261 456.184 217.261 433.754 220.213 430.679 223.166 433.754 223.166 456.184" style="fill:#2d398f"/><polygon points="243.803 456.184 237.898 456.184 237.898 433.754 240.85 430.679 243.803 433.754 243.803 456.184" style="fill:#2d398f"/><polygon points="264.44 456.184 258.535 456.184 258.535 433.754 261.487 430.679 264.44 433.754 264.44 456.184" style="fill:#2d398f"/><path d="M158.30248,435.96363c0,4.62122-4.61975,8.36746-10.31849,8.36746s-10.31849-3.74624-10.31849-8.36746" style="fill:none;stroke:#2d398f;stroke-linecap:round;stroke-linejoin:round;stroke-width:3.75px"/><path d="M178.90411,436.185c0,4.62122-4.61975,8.36747-10.31849,8.36747s-10.31849-3.74625-10.31849-8.36747" style="fill:none;stroke:#2d398f;stroke-linecap:round;stroke-linejoin:round;stroke-width:3.75px"/><path d="M199.59409,435.96363c0,4.62122-4.61974,8.36746-10.31848,8.36746s-10.31849-3.74624-10.31849-8.36746" style="fill:none;stroke:#2d398f;stroke-linecap:round;stroke-linejoin:round;stroke-width:3.75px"/><path d="M220.19572,436.185c0,4.62122-4.61974,8.36747-10.31848,8.36747s-10.31849-3.74625-10.31849-8.36747" style="fill:none;stroke:#2d398f;stroke-linecap:round;stroke-linejoin:round;stroke-width:3.75px"/><path d="M240.85037,436.185c0,4.62122-4.61975,8.36747-10.31849,8.36747s-10.31849-3.74625-10.31849-8.36747" style="fill:none;stroke:#2d398f;stroke-linecap:round;stroke-linejoin:round;stroke-width:3.75px"/><path d="M261.48734,436.185c0,4.62122-4.61974,8.36747-10.31849,8.36747s-10.31848-3.74625-10.31848-8.36747" style="fill:none;stroke:#2d398f;stroke-linecap:round;stroke-linejoin:round;stroke-width:3.75px"/><rect x="133.87254" y="453.98737" width="164.4778" height="14.36026" style="fill:#2d398f"/><polyline points="261.749 315.721 261.749 535.829 393.614 535.829 393.614 315.721" style="fill:none;stroke:#2d398f;stroke-linecap:round;stroke-linejoin:round;stroke-width:3.75px"/><rect x="261.74949" y="535.82948" width="223.89588" height="20.09265" transform="translate(747.39485 1091.75162) rotate(-180)" style="fill:none;stroke:#2d398f;stroke-linecap:round;stroke-linejoin:round;stroke-width:3.75px"/><rect x="240.0096" y="555.92214" width="183.8411" height="20.09265" transform="translate(663.8603 1131.93692) rotate(-180)" style="fill:none;stroke:#2d398f;stroke-linecap:round;stroke-linejoin:round;stroke-width:3.75px"/><line x1="393.61439" y1="391.42978" x2="474.99682" y2="315.61451" style="fill:none;stroke:#2d398f;stroke-linecap:round;stroke-linejoin:round;stroke-width:3.75px"/><line x1="144.36953" y1="509.51429" x2="144.36953" y2="850.74941" style="fill:none;stroke:#2d398f;stroke-linecap:round;stroke-linejoin:round;stroke-width:3.75px"/><line x1="178.13982" y1="850.87545" x2="178.13982" y2="509.51429" style="fill:none;stroke:#2d398f;stroke-linecap:round;stroke-linejoin:round;stroke-width:3.75px"/><line x1="178.13982" y1="718.74243" x2="144.36953" y2="718.74243" style="fill:none;stroke:#2d398f;stroke-linecap:round;stroke-linejoin:round;stroke-width:3.75px"/><line x1="178.13982" y1="742.51268" x2="144.36953" y2="742.51268" style="fill:none;stroke:#2d398f;stroke-linecap:round;stroke-linejoin:round;stroke-width:3.75px"/><line x1="178.13982" y1="766.28292" x2="144.36953" y2="766.28292" style="fill:none;stroke:#2d398f;stroke-linecap:round;stroke-linejoin:round;stroke-width:3.75px"/><line x1="178.13982" y1="790.05316" x2="144.36953" y2="790.05316" style="fill:none;stroke:#2d398f;stroke-linecap:round;stroke-linejoin:round;stroke-width:3.75px"/><line x1="178.13982" y1="813.82341" x2="144.36953" y2="813.82341" style="fill:none;stroke:#2d398f;stroke-linecap:round;stroke-linejoin:round;stroke-width:3.75px"/><line x1="178.13982" y1="837.59365" x2="144.36953" y2="837.59365" style="fill:none;stroke:#2d398f;stroke-linecap:round;stroke-linejoin:round;stroke-width:3.75px"/><line x1="178.13982" y1="694.97219" x2="144.36953" y2="694.97219" style="fill:none;stroke:#2d398f;stroke-linecap:round;stroke-linejoin:round;stroke-width:3.75px"/><line x1="178.13982" y1="555.9802" x2="144.36953" y2="555.9802" style="fill:none;stroke:#2d398f;stroke-linecap:round;stroke-linejoin:round;stroke-width:3.75px"/><line x1="178.13982" y1="579.02455" x2="144.36953" y2="579.02455" style="fill:none;stroke:#2d398f;stroke-linecap:round;stroke-linejoin:round;stroke-width:3.75px"/><line x1="178.13982" y1="602.0689" x2="144.36953" y2="602.0689" style="fill:none;stroke:#2d398f;stroke-linecap:round;stroke-linejoin:round;stroke-width:3.75px"/><line x1="178.13982" y1="625.11325" x2="144.36953" y2="625.11325" style="fill:none;stroke:#2d398f;stroke-linecap:round;stroke-linejoin:round;stroke-width:3.75px"/><line x1="178.13982" y1="648.1576" x2="144.36953" y2="648.1576" style="fill:none;stroke:#2d398f;stroke-linecap:round;stroke-linejoin:round;stroke-width:3.75px"/><line x1="178.13982" y1="671.20195" x2="144.36953" y2="671.20195" style="fill:none;stroke:#2d398f;stroke-linecap:round;stroke-linejoin:round;stroke-width:3.75px"/><line x1="178.13982" y1="532.93585" x2="144.36953" y2="532.93585" style="fill:none;stroke:#2d398f;stroke-linecap:round;stroke-linejoin:round;stroke-width:3.75px"/><polygon points="383.88 632.956 355.525 632.956 339 678.866 359.233 694.211 383.88 632.956" style="fill:#82f6f9"/><path d="M274.18277,611.37786s92.52661-18.78632,106.81555,4.64363c5.88176,9.64447,2.88143,16.93447,2.88143,16.93447h19.9676l20.00335-36.84852H240.0096Z" style="fill:#82f6f9"/><line x1="325.47019" y1="620.97356" x2="339.14219" y2="620.97356" style="fill:none;stroke:#2d398f;stroke-linecap:round;stroke-linejoin:round;stroke-width:3.75px"/><line x1="350.71733" y1="613.17085" x2="363.87189" y2="613.17085" style="fill:none;stroke:#2d398f;stroke-linecap:round;stroke-linejoin:round;stroke-width:3.75px"/><line x1="339.14219" y1="632.95596" x2="388.60159" y2="632.95596" style="fill:none;stroke:#2d398f;stroke-linecap:round;stroke-linejoin:round;stroke-width:3.75px"/><polyline points="240.01 596.107 423.851 596.107 403.847 632.956 383.88 632.956 359.233 694.211 301.381 650.334 301.33 619.478 240.01 596.107" style="fill:none;stroke:#2d398f;stroke-linecap:round;stroke-linejoin:round;stroke-width:3.75px"/><rect x="240.0096" y="576.01479" width="183.8411" height="20.09265" transform="translate(663.8603 1172.12223) rotate(-180)" style="fill:none;stroke:#2d398f;stroke-linecap:round;stroke-linejoin:round;stroke-width:3.75px"/><line x1="240.0096" y1="555.96062" x2="64.30141" y2="555.96062" style="fill:none;stroke:#2d398f;stroke-linecap:round;stroke-linejoin:round;stroke-width:3.75px"/><polyline points="302.726 164.888 302.726 290.954 186.61 290.954 186.61 174.839" style="fill:#fff"/><rect x="302.72562" y="189.49129" width="90.74881" height="101.46257" style="fill:#fff"/><polygon points="302.726 202.96 302.726 202.96 277.14 189.491 302.726 189.491 302.726 202.96" style="fill:#82f6f9"/><rect x="186.6105" y="189.49129" width="13.46861" height="101.7055" style="fill:#82f6f9"/><polygon points="194.018 201.738 186.61 189.491 302.726 164.888 302.726 178.698 194.018 201.738" style="fill:#82f6f9"/><rect x="302.72562" y="189.49129" width="13.46861" height="101.7055" style="fill:#82f6f9"/><rect x="341.36572" y="150.85119" width="13.46861" height="90.74881" transform="translate(544.32562 -151.87443) rotate(90)" style="fill:#82f6f9"/><polyline points="186.61 189.491 324.919 160.186 324.919 145.534 186.61 174.839" style="fill:#fff"/><polyline points="302.726 164.888 302.726 290.954 186.61 290.954 186.61 174.839" style="fill:none;stroke:#2d398f;stroke-linecap:round;stroke-linejoin:round;stroke-width:3.75px"/><polyline points="186.61 189.491 324.919 160.186 324.919 145.534 186.61 174.839" style="fill:none;stroke:#2d398f;stroke-linecap:round;stroke-linejoin:round;stroke-width:3.75px"/><rect x="234.75969" y="220.86669" width="19.92262" height="32.4742" transform="translate(489.442 474.20759) rotate(-180)" style="fill:#82f6f9"/><line x1="254.68231" y1="253.34089" x2="234.75969" y2="253.34089" style="fill:none;stroke:#2d398f;stroke-linecap:round;stroke-linejoin:round;stroke-width:3.75px"/><path d="M234.763,220.86881a9.95968,9.95968,0,0,1,19.91936,0Z" style="fill:#82f6f9"/><line x1="254.68231" y1="221.86375" x2="234.75969" y2="221.86375" style="fill:none;stroke:#2d398f;stroke-linecap:round;stroke-linejoin:round;stroke-width:3.75px"/><rect x="199.34426" y="220.86669" width="19.92262" height="32.4742" transform="translate(418.61114 474.20759) rotate(-180)" style="fill:#82f6f9"/><line x1="219.26688" y1="253.34089" x2="199.34426" y2="253.34089" style="fill:none;stroke:#2d398f;stroke-linecap:round;stroke-linejoin:round;stroke-width:3.75px"/><path d="M199.34753,220.86881a9.95968,9.95968,0,1,1,19.91935,0Z" style="fill:#82f6f9"/><line x1="219.26688" y1="221.86375" x2="199.34426" y2="221.86375" style="fill:none;stroke:#2d398f;stroke-linecap:round;stroke-linejoin:round;stroke-width:3.75px"/><rect x="270.17512" y="220.86669" width="19.92262" height="32.4742" transform="translate(560.27286 474.20759) rotate(-180)" style="fill:#82f6f9"/><line x1="290.09774" y1="253.34089" x2="270.17512" y2="253.34089" style="fill:none;stroke:#2d398f;stroke-linecap:round;stroke-linejoin:round;stroke-width:3.75px"/><path d="M270.17838,220.86881a9.95968,9.95968,0,1,1,19.91936,0Z" style="fill:#82f6f9"/><line x1="290.09774" y1="221.86375" x2="270.17512" y2="221.86375" style="fill:none;stroke:#2d398f;stroke-linecap:round;stroke-linejoin:round;stroke-width:3.75px"/><circle cx="366.07966" cy="125.552" r="10.8036" style="fill:#82f6f9"/><line x1="393.47443" y1="189.49129" x2="393.47443" y2="158.77185" style="fill:none;stroke:#2d398f;stroke-linecap:round;stroke-linejoin:round;stroke-width:3.75px"/><line x1="366.07959" y1="189.49129" x2="366.07959" y2="125.552" style="fill:none;stroke:#2d398f;stroke-linecap:round;stroke-linejoin:round;stroke-width:3.75px"/><polyline points="280.136 189.491 393.474 189.491 393.474 290.954" style="fill:none;stroke:#2d398f;stroke-linecap:round;stroke-linejoin:round;stroke-width:3.75px"/><rect x="358.34283" y="220.86669" width="19.92262" height="32.4742" style="fill:#82f6f9"/><circle cx="332.42079" cy="237.10379" r="13.2849" style="fill:#2d398f"/><line x1="358.34283" y1="253.34089" x2="378.26545" y2="253.34089" style="fill:none;stroke:#2d398f;stroke-linecap:round;stroke-linejoin:round;stroke-width:3.75px"/><rect x="1.875" y="291.30288" width="580.67801" height="23.4591" style="fill:none;stroke:#2d398f;stroke-linecap:round;stroke-linejoin:round;stroke-width:3.75px"/></svg>