<svg xmlns="http://www.w3.org/2000/svg" viewBox="0 0 502.58589 427.6282"><title>rocketchat</title><path d="M502.58589,213.47426c0-25.2364-7.5498-49.4356-22.4453-71.9317-13.373-20.1953-32.1093-38.0722-55.6865-53.1318C378.93649,59.33356,319.10839,43.32,256,43.32a359.86214,359.86214,0,0,0-62.0093,5.3095A205.43538,205.43538,0,0,0,151.3633,18.07C68.6177-22.02964,0,17.12656,0,17.12656s63.7983,52.4092,53.4238,98.3496c-28.5415,28.3135-44.01023,62.4531-44.01023,97.9981,0,.1132.00586.226.00635.3398-.00049.1133-.00635.2261-.00635.3394,0,35.5454,15.46873,69.685,44.01023,97.9985C63.7983,358.09236,0,410.50156,0,410.50156s68.6177,39.1563,151.3633-.9433a205.43949,205.43949,0,0,0,42.6274-30.5596A359.86214,359.86214,0,0,0,256,384.30826c63.10839,0,122.93649-16.0137,168.45409-45.0909,23.5772-15.0595,42.3135-32.9365,55.6865-53.1318,14.8955-22.4961,22.4453-46.6953,22.4453-71.9321,0-.1133-.0058-.2261-.0058-.3394C502.58009,213.70026,502.58589,213.58746,502.58589,213.47426ZM256,349.30826a319.84232,319.84232,0,0,1-73.9595-8.4952c-23.396,28.1475-74.8681,67.2803-124.8686,54.6289,16.2651-17.4697,40.3613-46.9882,35.2007-95.6025-29.9683-23.3223-47.959-53.1631-47.959-85.686,0-74.6455,94.7314-135.1543,211.5864-135.1543,116.85449,0,211.58589,60.5088,211.58589,135.1543C467.58589,288.79456,372.85449,349.30826,256,349.30826Z"/><path d="M256.00049,190.39906a28.105,28.105,0,1,0,28.105,28.1045A28.10527,28.10527,0,0,0,256.00049,190.39906Z"/><path d="M353.72849,190.39906a28.105,28.105,0,1,0,28.10351,28.1045A28.10591,28.10591,0,0,0,353.72849,190.39906Z"/><path d="M158.2725,190.39906a28.105,28.105,0,1,0,28.1045,28.1045A28.10485,28.10485,0,0,0,158.2725,190.39906Z"/></svg>