<svg xmlns="http://www.w3.org/2000/svg" viewBox="0 0 170 170"><title>turbine-blade</title><path d="M48.16737,102.42135C33.241,109.73907,19.74948,114.627,13.19831,115.37313c-3.06178,2.569-4.61058,4.586-4.07622,5.67512,1.5182,3.09383,18.99789-2.36376,39.04528-12.192,14.0939-6.91457,25.70525-14.14492,30.83006-18.90632l-2.40314-4.39566C70.71405,90.20773,60.37627,96.43162,48.16737,102.42135Z" style="fill:#dbfef7"/><path d="M85.23936,1.875c-1.17861,0-2.2769,2.15473-3.21731,5.83184,1.81017,7.0773,3.02463,19.89971,3.02463,34.59207,0,14.70217-1.21237,27.56866-3.0228,34.64465.09811.38223.19687.7587.29838,1.1064l5.75977.25469c2.01724-6.69716,3.3994-20.30548,3.3994-36.00574C91.48143,19.97293,88.68651,1.875,85.23936,1.875Z" style="fill:#dbfef7"/><path d="M127.331,97.64555c-13.9207-6.82627-26.60183-11.54674-33.56035-12.75243L91.2287,89.53719c7.21412,1.61029,18.98088,6.106,31.81232,12.39819,14.68987,7.202,26.64788,14.74168,31.40955,19.481,3.5879.72587,5.9187.66831,6.42729-.36811C162.39606,117.9543,147.37824,107.47394,127.331,97.64555Z" style="fill:#dbfef7"/><path d="M91.00273,89.94991c5.12463,4.7614,16.73609,11.99173,30.82988,18.9063,20.04733,9.8283,37.52729,15.28591,39.04527,12.192,1.51816-3.09387-13.49964-13.57422-33.547-23.40269-13.9206-6.82624-26.60178-11.54677-33.56035-12.75246" style="fill:none;stroke:#2d398f;stroke-linecap:round;stroke-linejoin:round;stroke-width:3.75px"/><path d="M78.99743,89.94991c-5.12481,4.7614-16.7361,11.99173-30.83007,18.9063-20.04732,9.8283-37.5271,15.28591-39.04526,12.192-1.518-3.09387,13.49964-13.57422,33.547-23.40269,13.9206-6.82624,26.60178-11.54677,33.56382-12.75246" style="fill:none;stroke:#2d398f;stroke-linecap:round;stroke-linejoin:round;stroke-width:3.75px"/><path d="M88.082,78.30473c2.0172-6.69721,3.39938-20.30552,3.39938-36.00579,0-22.326-2.795-40.42394-6.242-40.42394s-6.242,18.09792-6.242,40.42394c0,15.50344,1.34479,28.969,3.32478,35.751" style="fill:none;stroke:#2d398f;stroke-linecap:round;stroke-linejoin:round;stroke-width:3.75px"/><path d="M107.70144,49.77188A41.78221,41.78221,0,0,1,125.14922,72.8512" style="fill:none;stroke:#dbfef7;stroke-linecap:round;stroke-linejoin:round;stroke-width:3.75px"/><path d="M85.23943,126.57817a41.68672,41.68672,0,0,1,0-83.37343" style="fill:none;stroke:#dbfef7;stroke-linecap:round;stroke-linejoin:round;stroke-width:3.75px"/></svg>