<?xml version="1.0" encoding="UTF-8"?>
<!DOCTYPE svg PUBLIC "-//W3C//DTD SVG 1.1//EN" "http://www.w3.org/Graphics/SVG/1.1/DTD/svg11.dtd">
<svg version="1.1" xmlns="http://www.w3.org/2000/svg" xmlns:xlink="http://www.w3.org/1999/xlink" x="0" y="0" width="28.468" height="26.546" viewBox="0, 0, 28.468, 26.546">
  <g id="Layer_1">
    <path d="M8.454,8.973 L12.926,4.479 L12.926,18.296 C12.928,19.017 13.513,19.601 14.234,19.601 C14.956,19.601 15.541,19.017 15.543,18.296 L15.543,4.479 L20.015,8.973 C20.525,9.48 21.35,9.48 21.86,8.973 C22.371,8.465 22.375,7.64 21.87,7.127 L15.162,0.386 L15.161,0.385 C14.915,0.138 14.582,-0 14.234,-0 C13.887,-0 13.553,0.138 13.308,0.385 L13.307,0.386 L6.599,7.127 C6.094,7.64 6.098,8.465 6.608,8.973 C7.119,9.48 7.944,9.48 8.454,8.973 z" fill="#7CF8FA"/>
    <path d="M27.159,13.055 C26.436,13.055 25.851,13.641 25.851,14.363 L25.851,23.929 L2.617,23.929 L2.617,14.363 C2.615,13.642 2.03,13.058 1.309,13.058 C0.587,13.058 0.002,13.642 0,14.363 L0,25.237 C0,25.96 0.586,26.546 1.309,26.546 L27.159,26.546 C27.882,26.546 28.468,25.96 28.468,25.237 L28.468,14.363 C28.468,13.641 27.882,13.055 27.159,13.055 z" fill="#7CF8FA"/>
  </g>
</svg>
