<svg xmlns="http://www.w3.org/2000/svg" viewBox="0 0 28.46777 26.5459"><title>upload</title><path d="M8.4541,8.97266,12.92578,4.479V18.2959a1.3086,1.3086,0,0,0,2.61719,0V4.479l4.47168,4.49366A1.30857,1.30857,0,0,0,21.87012,7.127L15.16211.38574l-.00147-.001a1.30729,1.30729,0,0,0-1.85253,0l-.00147.001L6.59863,7.127A1.30857,1.30857,0,0,0,8.4541,8.97266Z"/><path d="M27.15918,13.05469a1.30866,1.30866,0,0,0-1.30859,1.30859v9.56543H2.61719V14.36328a1.3086,1.3086,0,0,0-2.61719,0v10.874a1.30867,1.30867,0,0,0,1.30859,1.3086H27.15918a1.30867,1.30867,0,0,0,1.30859-1.3086v-10.874A1.30866,1.30866,0,0,0,27.15918,13.05469Z"/></svg>